<?xml version="1.0" standalone="no"?>
<!DOCTYPE svg PUBLIC "-//W3C//DTD SVG 20010904//EN"
 "http://www.w3.org/TR/2001/REC-SVG-20010904/DTD/svg10.dtd">
<svg version="1.0" xmlns="http://www.w3.org/2000/svg"
 width="300.000000pt" height="277.000000pt" viewBox="0 0 300.000000 277.000000"
 preserveAspectRatio="xMidYMid meet">
<metadata>
Created by potrace 1.10, written by Peter Selinger 2001-2011
</metadata>
<g transform="translate(0.000000,277.000000) scale(0.100000,-0.100000)"
fill="#000000" stroke="none">
<path d="M1355 2724 c-197 -30 -289 -56 -409 -116 -139 -69 -257 -160 -361
-280 -37 -42 -42 -45 -60 -32 -31 23 -49 17 -123 -41 l-71 -55 -36 17 c-42 20
-54 15 -98 -40 -26 -32 -31 -47 -39 -137 -6 -70 -6 -112 2 -135 10 -29 6 -44
-30 -134 -23 -56 -44 -125 -47 -154 -4 -36 -13 -60 -30 -79 -43 -46 -15 -81
95 -119 85 -29 162 -22 162 17 0 13 -4 13 -30 -1 -39 -20 -69 -19 -133 5 -60
22 -100 58 -88 78 6 10 16 9 47 -4 53 -23 166 -54 176 -48 4 3 8 12 8 20 0 8
13 38 30 67 16 29 34 75 40 103 8 38 21 61 50 89 22 22 40 47 40 56 0 9 7 40
17 68 12 38 20 50 32 47 9 -2 39 -9 67 -16 52 -11 52 -12 41 -40 -6 -16 -21
-34 -34 -41 -27 -15 -30 -47 -8 -89 24 -46 35 -36 16 15 -12 34 -13 47 -4 56
10 10 18 6 40 -15 17 -18 29 -23 32 -15 2 6 -4 16 -13 21 -34 19 -10 99 33
111 10 2 33 -5 51 -16 27 -17 31 -24 25 -46 -4 -14 -6 -39 -6 -56 1 -30 -32
-75 -54 -75 -13 0 -65 -58 -65 -72 0 -11 -77 -58 -95 -58 -28 0 -172 -60 -187
-78 -21 -24 -8 -170 27 -299 83 -313 309 -572 596 -683 147 -57 246 -73 434
-74 184 -1 271 12 415 61 334 114 587 369 693 698 47 146 60 231 61 385 1 132
3 147 21 161 18 16 19 20 5 80 -7 35 -16 96 -19 135 -9 109 -37 129 -97 69
-44 -44 -70 -45 -224 -6 -63 16 -138 32 -165 36 -71 9 -170 -14 -315 -74 -67
-28 -135 -51 -149 -51 -15 0 -62 14 -106 30 -236 91 -322 97 -515 35 -79 -25
-175 -45 -221 -45 -26 0 -27 2 -22 38 6 43 -7 58 -96 111 -35 21 -62 31 -80
28 -23 -4 -22 -4 7 -6 17 0 32 -5 32 -11 0 -5 4 -10 10 -10 5 0 34 -17 65 -37
53 -36 56 -40 51 -72 -8 -51 -37 -76 -88 -75 -48 2 -75 29 -72 75 1 16 -2 32
-7 35 -5 3 -9 -8 -9 -23 0 -51 -50 -90 -70 -54 -5 10 -17 22 -27 25 -14 6 -16
5 -5 -5 16 -17 15 -50 -2 -74 -7 -11 -16 -33 -20 -50 -9 -34 -46 -98 -53 -91
-3 3 2 24 10 48 9 24 19 73 22 110 5 56 12 72 41 106 19 22 34 47 34 56 0 8 9
21 20 29 22 15 60 82 60 104 0 25 -21 13 -26 -16 -4 -16 -21 -44 -39 -61 -28
-27 -38 -31 -62 -25 -41 10 -66 35 -52 52 7 7 10 16 7 18 -9 9 -38 -6 -38 -19
0 -16 36 -49 72 -68 l28 -14 -19 -34 c-20 -38 -41 -44 -83 -23 -25 12 -27 11
-34 -20 -4 -17 -8 -36 -9 -42 0 -5 -7 -9 -14 -7 -7 1 -10 -2 -6 -7 8 -14 -25
-29 -57 -26 -16 2 -28 -1 -28 -6 0 -14 83 -10 102 5 10 7 21 28 24 45 6 27 10
32 28 27 12 -3 27 -6 35 -6 8 0 11 -6 6 -17 -3 -10 -13 -50 -20 -90 -8 -40
-19 -81 -25 -92 -6 -12 -13 -40 -16 -63 -8 -62 -11 -68 -36 -69 -22 -1 -22 -1
2 -8 l24 -7 -22 -22 c-12 -12 -21 -32 -19 -44 1 -15 -3 -22 -11 -20 -8 1 -12
-3 -10 -10 6 -17 -28 -48 -53 -48 -11 0 -18 3 -16 8 3 4 -7 8 -21 8 -15 1 -40
7 -57 14 -16 7 -33 13 -36 12 -3 0 -6 5 -6 13 0 8 3 12 7 10 4 -3 10 19 13 48
5 53 62 209 78 215 13 5 11 50 -2 58 -6 3 -9 15 -6 25 3 11 1 19 -5 19 -5 0
-7 4 -3 10 3 5 7 50 9 99 2 78 6 96 30 131 14 22 34 40 43 40 23 0 81 -41 86
-60 6 -21 -15 -85 -28 -86 -5 0 -17 -4 -26 -8 -10 -4 -23 -7 -30 -5 -35 4 -44
-1 -25 -16 31 -23 65 -18 98 15 26 26 29 36 26 73 -3 23 -6 48 -9 56 -2 8 6
20 19 26 12 7 41 28 63 49 22 20 46 36 53 36 20 0 76 -30 76 -41 0 -5 5 -9 11
-9 5 0 8 4 5 9 -19 29 179 223 286 280 18 10 53 29 78 43 106 58 237 97 375
114 22 2 60 7 85 11 25 4 47 6 50 6 3 -1 46 -4 95 -8 106 -7 217 -27 300 -53
66 -21 188 -77 208 -95 6 -7 44 -33 82 -59 39 -25 88 -66 110 -90 69 -75 151
-191 169 -239 20 -52 61 -108 71 -97 10 10 -54 143 -104 217 -149 219 -390
373 -665 426 -81 16 -304 27 -361 19z m870 -710 c50 -13 121 -28 160 -33 60
-7 72 -6 89 11 26 24 46 23 46 -2 0 -13 -19 -30 -63 -55 -52 -29 -67 -43 -82
-78 -10 -23 -24 -56 -31 -74 -8 -17 -14 -38 -14 -47 0 -9 -4 -16 -8 -16 -5 0
-15 -19 -22 -41 -14 -40 -14 -41 -30 -21 -16 19 -16 19 -38 -14 -24 -37 -90
-85 -141 -102 -50 -17 -171 -15 -217 4 -130 53 -181 236 -91 332 118 126 400
134 482 14 14 -20 25 -30 25 -21 0 8 -13 28 -30 44 -16 15 -27 32 -24 37 3 5
2 7 -3 6 -11 -3 -73 25 -73 34 0 4 6 6 13 4 23 -8 101 -17 96 -12 -16 16 -136
37 -214 37 -82 0 -162 -16 -160 -32 0 -4 -27 -27 -61 -52 -73 -53 -103 -98
-111 -165 -16 -138 82 -244 239 -259 117 -10 260 53 283 127 5 16 10 19 18 11
8 -8 7 -19 -6 -40 -9 -15 -13 -32 -9 -36 4 -5 2 -6 -3 -2 -16 8 -48 -20 -39
-34 5 -9 2 -10 -9 -6 -17 7 -41 -15 -29 -28 4 -5 2 -5 -5 -1 -6 3 -14 2 -18
-4 -3 -5 -15 -10 -26 -10 -10 0 -19 -4 -19 -10 0 -5 -9 -10 -20 -10 -11 0 -20
5 -20 11 0 6 6 9 13 6 8 -3 14 1 14 8 0 10 -9 10 -36 3 -20 -6 -58 -8 -86 -5
-27 2 -42 2 -32 0 19 -5 22 -18 7 -28 -5 -3 -10 -2 -10 2 0 5 -16 8 -35 7 -19
-1 -35 2 -35 7 0 5 -5 9 -11 9 -5 0 -7 -5 -3 -11 4 -7 -2 -7 -17 1 -32 16 -99
80 -110 105 -5 11 -18 34 -29 50 -29 44 -29 44 -39 120 l-8 70 -2 -77 c-1 -94
18 -138 96 -216 77 -77 126 -97 243 -97 81 0 103 4 150 26 133 63 231 197 255
349 9 59 28 87 63 95 16 3 39 15 50 25 29 27 31 26 38 -20 4 -22 9 -38 13 -36
13 8 10 -110 -4 -140 -9 -19 -12 -45 -9 -70 3 -21 6 -43 6 -49 0 -28 -14 -125
-23 -158 -5 -20 -7 -41 -5 -46 3 -5 -1 -26 -10 -46 -8 -21 -13 -43 -10 -51 3
-7 1 -16 -4 -19 -5 -3 -7 -12 -3 -20 3 -8 0 -15 -7 -15 -6 0 -9 -4 -6 -9 4 -5
-3 -29 -13 -54 -11 -25 -17 -47 -14 -50 2 -3 -3 -18 -13 -33 -10 -15 -19 -34
-21 -43 -1 -9 -7 -17 -13 -19 -5 -2 -8 -8 -5 -12 3 -5 -5 -19 -17 -31 -13 -12
-17 -19 -10 -15 23 13 -46 -87 -98 -142 -27 -30 -54 -51 -60 -47 -9 5 -14 -8
-7 -19 2 -4 -82 -74 -137 -114 -17 -12 -36 -22 -43 -22 -7 0 -13 -4 -13 -9 0
-10 -39 -27 -52 -23 -5 1 -8 -2 -8 -7 0 -12 -96 -62 -104 -54 -3 3 -12 1 -19
-5 -8 -7 -17 -9 -20 -5 -4 3 -7 1 -7 -5 0 -7 -3 -11 -7 -10 -5 1 -19 -4 -32
-11 -17 -9 -21 -10 -16 -1 6 9 2 9 -14 1 -11 -7 -21 -9 -21 -6 0 3 -10 1 -21
-6 -12 -6 -38 -11 -58 -11 -20 0 -40 -2 -45 -5 -8 -5 -106 -14 -171 -15 -16 0
-68 3 -115 7 -47 4 -97 8 -112 8 -16 1 -28 6 -28 11 0 5 -3 6 -6 3 -4 -3 -15
-2 -25 4 -13 7 -19 6 -19 -1 0 -7 -7 -5 -15 4 -8 8 -24 13 -35 11 -11 -2 -20
1 -20 6 0 6 -4 7 -10 4 -5 -3 -27 2 -47 12 -40 19 -43 20 -69 22 -10 0 -14 7
-11 15 4 10 -1 13 -19 11 -22 -2 -29 6 -25 28 1 5 -3 6 -9 2 -6 -3 -7 -11 -4
-17 4 -6 -5 -3 -19 8 -15 10 -24 25 -22 33 4 11 2 11 -9 2 -11 -9 -15 -8 -20
4 -3 9 -10 13 -16 10 -5 -3 -10 -1 -10 5 0 12 -24 39 -37 43 -4 1 -7 6 -5 10
1 5 -2 6 -7 3 -11 -7 -115 98 -162 164 -41 56 -92 150 -82 150 5 0 3 4 -2 8
-14 9 -38 65 -25 57 5 -3 3 7 -5 22 -8 15 -15 34 -15 41 0 7 -4 20 -9 30 -10
18 -29 121 -36 188 -5 54 -8 68 -18 75 -28 20 68 77 171 100 54 12 111 51 143
97 13 19 33 39 44 44 31 14 46 44 52 104 3 30 9 54 13 54 4 0 19 -9 32 -20 18
-14 28 -34 33 -65 23 -158 118 -287 255 -347 65 -29 172 -35 244 -14 74 22
119 50 179 115 68 73 97 139 97 225 0 83 -5 83 -14 1 -3 -32 -12 -72 -18 -87
-16 -36 -38 -44 -39 -15 0 21 -1 21 -8 2 -5 -12 -3 -25 6 -33 18 -18 16 -23
-4 -15 -10 3 -15 3 -11 -1 11 -13 -78 -108 -126 -135 -39 -22 -107 -36 -115
-23 -3 5 -32 12 -63 15 -47 4 -58 3 -58 -9 0 -12 -5 -12 -37 1 -21 9 -40 19
-43 23 -7 10 -68 52 -75 52 -13 0 8 -22 47 -51 23 -16 36 -29 30 -29 -17 0
-96 64 -108 88 -6 12 -15 26 -19 30 -5 4 -5 1 0 -7 5 -9 4 -12 -3 -7 -6 4 -9
13 -6 21 4 8 -1 18 -10 21 -9 3 -16 11 -16 18 0 6 -9 22 -20 36 -11 14 -20 38
-20 53 0 16 -4 26 -9 23 -4 -3 -6 6 -3 19 2 14 0 25 -5 25 -4 0 -8 15 -7 34 2
30 -2 36 -44 57 -26 12 -41 24 -34 27 7 2 10 7 7 12 -9 15 31 38 75 43 25 2
52 7 60 10 8 3 56 19 105 34 77 24 107 28 205 28 114 -1 116 -1 240 -50 127
-50 219 -64 228 -37 2 7 9 12 17 12 7 0 38 11 69 25 32 14 62 23 67 20 5 -4 9
-2 9 4 0 12 69 38 130 50 60 12 126 5 235 -25z"/>
<path d="M1140 2001 l-35 -8 40 -2 40 -2 -68 -24 c-139 -48 -180 -93 -179
-201 0 -66 31 -147 74 -196 21 -23 78 -59 103 -64 192 -41 324 2 380 123 45
99 43 211 -5 241 l-21 13 21 -28 c32 -44 36 -117 11 -185 -38 -100 -118 -156
-238 -166 -181 -14 -316 103 -309 269 3 82 22 111 100 152 57 29 67 31 171 31
100 1 115 -2 165 -27 30 -15 47 -21 37 -13 -10 8 -14 16 -10 18 4 3 3 3 -4 2
-7 -2 -10 3 -6 11 3 8 9 12 14 10 16 -10 102 -34 93 -26 -13 12 -91 41 -154
58 -68 18 -173 24 -220 14z"/>
<path d="M1740 1575 c14 -22 79 -80 83 -74 2 2 -19 24 -46 49 -28 25 -44 36
-37 25z"/>
<path d="M2237 1435 c-27 -13 -64 -29 -83 -35 -19 -7 -32 -15 -29 -20 5 -9
-33 -26 -48 -22 -4 1 -18 -4 -30 -13 l-21 -15 22 0 c13 0 32 5 43 10 26 15 42
4 29 -20 -23 -42 -69 -70 -56 -32 4 9 -4 5 -18 -11 -13 -16 -30 -27 -38 -26
-7 2 -23 -2 -35 -9 -28 -16 -35 -4 -27 48 7 46 9 47 51 55 39 6 123 43 102 44
-9 1 -29 -3 -45 -8 -144 -44 -262 -59 -534 -67 -153 -4 -200 -2 -370 22 -107
14 -219 27 -247 28 -29 0 -53 4 -53 9 0 4 -13 7 -29 7 -16 0 -41 4 -55 9 -18
7 -27 6 -36 -4 -8 -10 -8 -14 2 -18 7 -3 3 -6 -9 -6 -16 -1 -23 -7 -23 -21 0
-11 3 -20 6 -20 3 0 17 9 31 20 16 13 41 20 67 20 24 0 36 -4 29 -8 -9 -6 -2
-17 26 -37 21 -16 37 -35 34 -41 -2 -6 20 -23 49 -36 29 -14 62 -35 72 -47 12
-13 23 -18 30 -13 6 5 36 6 66 3 l55 -6 -3 -50 c-3 -47 -1 -51 30 -69 66 -38
104 -54 174 -70 73 -18 224 -27 224 -13 0 4 -4 7 -10 7 -6 0 -10 36 -11 88 0
68 -2 82 -10 62 -6 -14 -9 -43 -8 -65 4 -91 7 -88 -68 -82 -98 8 -150 21 -221
58 -72 37 -97 65 -84 98 8 22 11 22 247 26 132 2 278 6 325 10 92 7 248 45
286 70 61 40 43 7 -63 -113 l-32 -37 -1 30 c-1 47 -16 64 -22 24 -3 -19 -2
-35 3 -37 4 -2 5 -10 2 -18 -5 -13 -7 -13 -14 -2 -6 10 -9 8 -9 -7 0 -17 -28
-45 -50 -51 -28 -7 -70 -32 -59 -36 17 -6 69 24 136 78 29 23 56 44 60 46 5 1
40 46 79 98 80 106 167 200 186 200 7 0 26 -7 42 -15 15 -8 30 -15 32 -15 10
0 3 20 -12 34 -8 9 -12 20 -9 26 10 16 -17 11 -68 -15z m-1294 -91 c31 -6 37
-11 38 -33 2 -25 2 -25 6 -2 4 19 9 22 31 18 28 -5 152 -21 277 -34 69 -8 90
-24 39 -29 -14 -2 -29 -6 -33 -10 -3 -4 4 -5 16 -2 12 3 31 -1 42 -9 20 -13
21 -12 21 16 l0 31 84 0 c85 0 118 -13 74 -29 l-23 -8 23 -7 c18 -6 22 -14 20
-34 -3 -27 -4 -27 -90 -30 -86 -3 -88 -2 -89 20 l0 23 -11 -22 c-10 -21 -18
-23 -79 -23 -37 0 -80 5 -96 11 -15 7 -41 11 -56 10 -52 -5 -106 10 -131 36
-14 14 -26 20 -26 14 0 -7 -18 1 -40 19 -22 17 -39 36 -37 42 1 6 -6 12 -17
13 -10 2 -23 8 -29 14 -13 13 25 15 86 5z m901 -45 c-5 -9 1 -10 20 -5 43 11
66 -1 66 -34 0 -20 -7 -33 -21 -41 -28 -14 -135 -24 -142 -13 -3 5 -3 30 0 57
l6 47 39 0 c27 0 37 -4 32 -11z m-104 -8 c0 -4 -11 -6 -25 -3 -14 2 -25 0 -25
-5 0 -5 12 -10 26 -11 38 -3 42 -8 35 -44 -6 -31 -10 -33 -56 -38 -28 -3 -67
-3 -87 -1 l-38 3 5 42 c2 22 4 44 4 48 1 6 41 11 129 16 17 1 32 -2 32 -7z"/>
<path d="M1056 1157 c11 -19 86 -79 92 -73 8 8 -9 25 -55 57 -25 18 -42 25
-37 16z"/>
<path d="M1746 1140 c-14 -42 -15 -50 -5 -50 6 0 9 -18 7 -40 -2 -33 -7 -42
-33 -54 -17 -8 -50 -16 -73 -17 -23 -2 -42 -7 -42 -11 0 -4 6 -8 14 -8 8 0 23
-3 33 -7 10 -3 15 -2 10 3 -5 5 16 15 50 24 l58 15 -5 85 c-4 64 -7 79 -14 60z"/>
<path d="M1363 1093 c0 -29 4 -50 9 -47 10 6 9 53 -2 79 -5 14 -8 4 -7 -32z"/>
<path d="M2050 1027 c0 -12 -151 -155 -180 -171 -14 -7 -50 -26 -80 -43 -69
-38 -182 -57 -281 -49 -97 8 -99 8 -99 18 0 5 -4 7 -9 3 -16 -9 -102 16 -94
28 3 5 1 7 -5 3 -12 -7 -62 13 -62 25 0 4 -10 11 -21 14 -12 4 -54 29 -93 56
-38 27 -76 49 -82 49 -7 0 -15 7 -18 16 -4 9 -10 14 -13 10 -10 -10 104 -112
162 -145 114 -64 209 -88 379 -96 61 -3 120 -8 131 -11 26 -7 99 32 195 104
71 53 210 182 210 195 0 3 -9 5 -20 4 -11 -1 -20 -5 -20 -10z"/>
<path d="M1812 2473 c-36 -3 -46 -10 -62 -36 -24 -39 -26 -72 -5 -63 8 3 14 0
12 -7 -1 -6 9 -13 23 -14 22 -2 23 -2 5 6 -28 13 -1 13 55 0 24 -5 48 -15 52
-22 4 -6 32 -11 66 -12 33 0 59 -2 57 -6 -8 -12 59 0 72 14 18 18 28 96 15
116 -5 7 -23 15 -38 16 -73 7 -213 12 -252 8z m235 -29 c15 6 43 -20 43 -40 0
-9 -5 -24 -11 -36 -9 -17 -17 -19 -62 -13 -29 3 -72 8 -98 11 -25 3 -67 11
-95 18 -40 10 -48 16 -46 32 5 26 3 25 83 30 40 3 74 6 76 8 2 2 25 -1 51 -5
26 -5 52 -7 59 -5z"/>
<path d="M1075 2459 c-52 -6 -84 -15 -92 -25 -12 -17 -9 -67 7 -109 9 -24 13
-26 58 -21 26 2 47 5 47 6 0 1 23 4 50 6 107 9 208 31 200 44 -3 4 4 10 15 13
24 6 27 44 6 73 -12 16 -28 19 -113 21 -54 1 -134 -3 -178 -8z m267 -32 c21
-33 -2 -46 -117 -67 -33 -5 -92 -16 -132 -23 -69 -13 -72 -12 -82 7 -14 29 -9
75 9 81 8 2 39 6 67 7 29 2 53 5 53 8 0 11 195 -2 202 -13z"/>
<path d="M347 1879 c3 -24 10 -51 15 -59 6 -10 7 2 4 35 -4 27 -10 53 -15 58
-6 6 -7 -8 -4 -34z"/>
<path d="M466 1825 c-5 -15 29 -45 52 -45 10 0 10 4 -2 16 -9 8 -16 19 -16 24
0 15 -28 19 -34 5z"/>
<path d="M2579 1205 c-15 -8 -30 -26 -33 -41 -10 -39 -24 -225 -25 -329 -1
-87 -2 -91 -30 -115 -32 -27 -51 -81 -51 -147 0 -57 15 -91 48 -110 35 -20 62
-65 62 -102 0 -29 39 -80 62 -82 7 0 27 -2 43 -5 17 -2 67 -5 113 -6 81 -3 84
-2 109 26 23 27 25 35 19 88 -6 50 -5 58 9 58 9 0 30 13 46 29 37 38 39 82 4
116 -31 32 -56 33 -27 2 32 -34 29 -83 -5 -113 -23 -20 -35 -23 -78 -19 -27 3
-80 7 -116 9 -36 2 -77 10 -90 17 -13 7 -30 14 -36 15 -15 3 -17 -13 -3 -18 5
-1 -6 -16 -25 -31 l-35 -28 0 26 c0 14 -4 25 -8 25 -4 0 -8 9 -9 20 -2 19 11
28 20 13 2 -5 3 -3 1 3 -1 6 3 17 9 23 6 6 7 14 3 18 -4 4 -11 1 -15 -6 -6 -8
-11 -9 -15 -3 -3 6 -2 13 4 17 15 9 12 22 -4 22 -8 0 -12 -6 -8 -15 4 -11 1
-13 -8 -7 -8 5 -11 4 -6 -3 3 -6 2 -13 -2 -16 -5 -3 -8 -20 -7 -37 l2 -32 -19
22 c-14 18 -18 38 -16 95 l1 71 7 -60 c6 -52 7 -55 9 -20 2 22 3 58 3 80 -1
22 2 32 4 23 3 -10 9 -18 14 -18 11 0 43 125 49 194 1 5 8 3 16 -4 9 -7 18
-11 20 -8 10 9 -7 38 -22 38 -12 0 -13 8 -8 40 4 22 7 59 7 83 l1 42 69 1 c65
0 68 -1 68 -24 0 -13 -5 -32 -10 -43 -12 -22 -61 -49 -89 -49 -11 0 -23 -5
-27 -12 -10 -16 70 -2 100 18 21 13 24 13 30 -1 3 -9 6 -27 6 -40 0 -12 10
-30 23 -38 21 -15 20 -16 -29 -15 -29 0 -56 -2 -62 -6 -6 -3 -12 0 -15 6 -6
21 -47 -81 -47 -119 0 -19 5 -43 11 -54 8 -16 7 -23 -5 -32 -15 -12 -40 -67
-33 -73 2 -2 15 13 28 34 l24 37 105 -1 c58 -1 131 -4 163 -6 53 -4 60 -2 78
20 57 73 -13 175 -126 183 -44 3 -81 30 -97 69 -6 14 -10 78 -9 144 0 118 0
118 -28 147 -33 32 -70 37 -112 14z m105 -27 c19 -27 21 -89 4 -106 -13 -13
-75 -16 -102 -6 -20 8 -23 103 -4 122 21 21 85 15 102 -10z m105 -359 c100
-15 111 -18 111 -30 0 -6 9 -18 19 -27 31 -27 35 -58 10 -81 -21 -19 -33 -20
-173 -18 -148 2 -151 2 -150 24 0 12 -3 20 -8 17 -4 -3 -8 -1 -8 5 0 5 9 13
20 16 22 7 27 25 8 26 -10 0 -10 2 0 6 6 2 12 11 12 19 0 8 5 14 11 14 5 0 8
4 4 9 -7 13 24 30 54 31 13 0 54 -5 90 -11z m1 -379 c75 0 84 -8 81 -71 -2
-78 -8 -82 -127 -77 -81 3 -107 7 -122 21 -25 23 -42 86 -30 116 8 23 12 24
76 17 37 -3 92 -6 122 -6z"/>
</g>
</svg>
